<svg height="100" width="100" xmlns="http://www.w3.org/2000/svg" viewBox="0 0 64 64"><circle cx="32" cy="32" r="32" fill="white"/><path d="M31.03 38.757l-2 8A1 1 0 0 0 30 48a1.01 1.01 0 0 0 .243-.03l4-1a1 1 0 1 0-.486-1.94l-2.382.595 1.595-6.382a1 1 0 1 0-1.94-.486zM27.245 36.032a1 1 0 0 0-1.215.723C26.022 36.788 25.176 40 23 40s-3.022-3.212-3.03-3.245a1 1 0 0 0-1.94.488C18.079 37.437 19.262 42 23 42s4.921-4.563 4.97-4.757a1 1 0 0 0-.725-1.211zM41 42c3.738 0 4.921-4.563 4.97-4.757a1 1 0 0 0-1.94-.488C44.022 36.788 43.176 40 41 40s-3.022-3.212-3.03-3.245a1 1 0 0 0-1.94.488C36.079 37.437 37.262 42 41 42z"/><path d="M53 31.121V25c0-2.2-4-3.435-8.516-4.124l1.963-.981A1 1 0 0 0 47 19v-4a1 1 0 0 0-2 0v3.382l-2 1v-5.566a3 3 0 1 0-2 0v6.631a104.285 104.285 0 0 0-8-.437v-3.392l3.447-1.718A1 1 0 0 0 37 14v-3.184a3 3 0 1 0-2 0v2.566l-2 1V13a1 1 0 0 0-.293-.707L29 8.586v-.77a3 3 0 1 0-2 0V9a1 1 0 0 0 .293.707L31 13.414v6.6c-1.105.018-3 .068-5.209.212l.656-.327A1 1 0 0 0 27 19v-4a1 1 0 0 0-2 0v3.382l-2 1v-5.566a3 3 0 1 0-2 0v1.77l-.293-.293a1 1 0 0 0-1.414 1.414L21 18.414v2.256c-5.08.639-10 1.887-10 4.33v6.121C8.721 31.679 7 34.1 7 37c0 2.938 1.77 5.384 4.1 5.9a20.989 20.989 0 0 0 41.808 0C55.23 42.384 57 39.938 57 37c0-2.9-1.721-5.321-4-5.879zM36 7a1 1 0 1 1-1 1 1 1 0 0 1 1-1zm-8-1a1 1 0 1 1 1-1 1 1 0 0 1-1 1zM11 40.754A4.085 4.085 0 0 1 9 37a4.085 4.085 0 0 1 2-3.754zM42 10a1 1 0 1 1-1 1 1 1 0 0 1 1-1zm-20 0a1 1 0 1 1-1 1 1 1 0 0 1 1-1zm-9 15.038c.3-.688 3.063-1.709 8-2.374V25a1 1 0 0 0 2 0v-2.569c2.3-.236 4.973-.392 8-.421V25a1 1 0 0 0 2 0v-2.99c3.027.029 5.7.184 8 .42V25a1 1 0 0 0 2 0v-2.337c4.847.653 7.6 1.65 7.984 2.337-.614 1.1-7.319 3-18.984 3-11.8 0-18.523-1.942-19-2.943zM51 41a19 19 0 0 1-38 0V27.362C18.109 29.961 31.309 30 32 30s13.891-.039 19-2.638zm2-.246v-7.508A4.085 4.085 0 0 1 55 37a4.085 4.085 0 0 1-2 3.754z"/></svg>
